<svg xmlns="http://www.w3.org/2000/svg" xmlns:xlink="http://www.w3.org/1999/xlink" preserveAspectRatio="xMidYMid" width="48" height="38" viewBox="0 0 48 38">
  <defs>
    <style>
      .cls-1 {
        fill: #fff;
        fill-rule: evenodd;
      }
    </style>
  </defs>
  <path d="M43.605,38.007 L39.762,38.007 L34.256,38.007 L13.743,38.007 L8.239,38.007 L4.394,38.007 C1.971,38.007 -0.000,36.056 -0.000,33.656 L-0.000,11.414 C-0.000,9.015 1.971,7.063 4.394,7.063 L8.239,7.063 L13.743,7.063 L15.284,7.063 L15.284,2.942 C15.284,1.316 16.619,-0.008 18.261,-0.008 L29.703,-0.008 C31.345,-0.008 32.681,1.316 32.681,2.942 L32.681,7.063 L34.256,7.063 L39.762,7.063 L43.605,7.063 C46.029,7.063 48.000,9.015 48.000,11.414 L48.000,33.656 C48.000,36.056 46.029,38.007 43.605,38.007 ZM30.532,2.942 C30.532,2.490 30.160,2.120 29.703,2.120 L18.261,2.120 C17.805,2.120 17.433,2.490 17.433,2.942 L17.433,7.063 L30.532,7.063 L30.532,2.942 ZM45.850,11.414 C45.850,10.188 44.844,9.192 43.605,9.192 L4.394,9.192 C3.155,9.192 2.149,10.188 2.149,11.414 L2.149,33.656 C2.149,34.882 3.155,35.879 4.394,35.879 L43.605,35.879 C44.844,35.879 45.850,34.882 45.850,33.656 L45.850,11.414 ZM22.499,32.076 C22.057,32.515 21.469,32.756 20.842,32.756 C20.216,32.756 19.627,32.515 19.185,32.077 L12.310,25.268 C11.810,24.773 11.534,24.115 11.534,23.413 C11.534,22.712 11.810,22.054 12.310,21.559 L14.182,19.705 C14.683,19.209 15.348,18.937 16.055,18.937 C16.761,18.937 17.426,19.209 17.928,19.704 L20.784,22.534 L30.102,13.306 C30.546,12.867 31.135,12.626 31.760,12.626 C32.385,12.626 32.974,12.867 33.416,13.305 L35.779,15.645 C36.222,16.084 36.465,16.666 36.465,17.286 C36.465,17.904 36.222,18.487 35.779,18.926 L22.499,32.076 ZM34.480,16.931 L32.119,14.591 C32.029,14.503 31.898,14.452 31.760,14.452 C31.622,14.452 31.491,14.503 31.401,14.591 L21.433,24.462 C21.267,24.627 21.030,24.721 20.784,24.721 C20.538,24.721 20.301,24.627 20.135,24.462 L16.629,20.991 C16.476,20.839 16.272,20.755 16.055,20.755 C15.837,20.755 15.633,20.839 15.480,20.991 L13.609,22.845 C13.455,22.997 13.370,23.199 13.370,23.413 C13.370,23.628 13.455,23.830 13.609,23.982 L20.483,30.791 C20.573,30.879 20.704,30.930 20.842,30.930 C20.981,30.930 21.111,30.879 21.201,30.791 L34.480,17.640 C34.576,17.545 34.629,17.420 34.629,17.286 C34.629,17.151 34.576,17.025 34.480,16.931 Z" class="cls-1"/>
</svg>
