<svg xmlns="http://www.w3.org/2000/svg" xmlns:xlink="http://www.w3.org/1999/xlink" preserveAspectRatio="xMidYMid" width="19" height="17.03" viewBox="0 0 19 17.03">
  <defs>
    <style>
      .cls-1 {
        fill: #4e610c;
        fill-rule: evenodd;
      }
    </style>
  </defs>
  <path d="M18.050,9.956 L17.965,9.956 L15.863,16.309 C15.863,16.707 15.539,17.029 15.139,17.029 L3.981,17.029 C3.581,17.029 3.257,16.707 3.257,16.309 L1.054,9.956 L0.950,9.956 C0.425,9.956 -0.000,9.524 -0.000,8.992 C-0.000,8.459 0.425,8.027 0.950,8.027 L1.328,8.027 C1.338,8.027 1.347,8.022 1.357,8.022 C1.357,8.022 3.136,8.022 4.012,8.022 C4.424,8.022 4.028,9.208 5.436,9.208 C6.903,9.208 6.495,8.022 6.968,8.022 C7.476,8.022 11.054,8.022 12.240,8.022 C12.737,8.022 12.379,9.196 13.744,9.196 C15.126,9.196 14.778,8.022 15.219,8.022 C16.008,8.022 17.643,8.022 17.643,8.022 C17.653,8.022 17.661,8.027 17.671,8.027 L18.050,8.027 C18.575,8.027 19.000,8.459 19.000,8.992 C19.000,9.524 18.575,9.956 18.050,9.956 ZM3.800,10.104 C3.100,10.104 2.533,10.668 2.533,11.363 C2.533,12.058 3.100,12.622 3.800,12.622 C4.499,12.622 5.066,12.058 5.066,11.363 C5.066,10.668 4.499,10.104 3.800,10.104 ZM4.433,14.511 C4.433,15.206 5.000,15.770 5.700,15.770 C6.399,15.770 6.966,15.206 6.966,14.511 C6.966,13.816 6.399,13.252 5.700,13.252 C5.000,13.252 4.433,13.816 4.433,14.511 ZM7.600,10.104 C6.900,10.104 6.333,10.668 6.333,11.363 C6.333,12.058 6.900,12.622 7.600,12.622 C8.299,12.622 8.867,12.058 8.867,11.363 C8.867,10.668 8.299,10.104 7.600,10.104 ZM8.233,14.511 C8.233,15.206 8.800,15.770 9.500,15.770 C10.199,15.770 10.766,15.206 10.766,14.511 C10.766,13.816 10.199,13.252 9.500,13.252 C8.800,13.252 8.233,13.816 8.233,14.511 ZM11.400,10.104 C10.700,10.104 10.133,10.668 10.133,11.363 C10.133,12.058 10.700,12.622 11.400,12.622 C12.099,12.622 12.667,12.058 12.667,11.363 C12.667,10.668 12.099,10.104 11.400,10.104 ZM13.300,13.252 C12.600,13.252 12.033,13.816 12.033,14.511 C12.033,15.206 12.600,15.770 13.300,15.770 C13.999,15.770 14.566,15.206 14.566,14.511 C14.566,13.816 13.999,13.252 13.300,13.252 ZM15.200,10.104 C14.500,10.104 13.933,10.668 13.933,11.363 C13.933,12.058 14.500,12.622 15.200,12.622 C15.899,12.622 16.467,12.058 16.467,11.363 C16.467,10.668 15.899,10.104 15.200,10.104 ZM13.843,8.577 C13.384,8.577 13.013,8.200 13.013,7.737 C13.013,7.608 13.046,7.490 13.097,7.381 L9.820,1.420 C9.820,1.420 9.705,0.299 9.952,0.193 C11.330,-0.400 11.216,0.726 11.214,0.754 C11.200,1.042 11.034,1.369 11.145,1.570 C11.860,2.871 13.402,5.677 14.102,6.950 C14.432,7.061 14.673,7.366 14.673,7.737 C14.673,8.200 14.301,8.577 13.843,8.577 ZM6.265,7.381 C6.316,7.490 6.349,7.608 6.349,7.737 C6.349,8.200 5.977,8.577 5.519,8.577 C5.060,8.577 4.689,8.200 4.689,7.737 C4.689,7.366 4.930,7.061 5.259,6.950 C5.959,5.677 7.502,2.871 8.217,1.570 C8.327,1.369 8.161,1.042 8.147,0.754 C8.146,0.726 8.031,-0.400 9.410,0.193 C9.656,0.299 9.542,1.420 9.542,1.420 L6.265,7.381 Z" class="cls-1"/>
</svg>
