<svg xmlns="http://www.w3.org/2000/svg" xmlns:xlink="http://www.w3.org/1999/xlink" preserveAspectRatio="xMidYMid" width="30" height="27" viewBox="0 0 30 27">
  <defs>
    <style>
      .cls-1 {
        fill: #869764;
        fill-rule: evenodd;
      }
    </style>
  </defs>
  <path d="M28.500,16.000 L28.366,16.000 L25.047,25.879 C25.047,26.498 24.536,27.000 23.904,27.000 L6.285,27.000 C5.654,27.000 5.143,26.498 5.143,25.879 L1.665,16.000 L1.500,16.000 C0.671,16.000 -0.000,15.328 -0.000,14.500 C-0.000,13.671 0.671,13.000 1.500,13.000 L2.099,13.000 C2.114,12.999 2.127,12.991 2.143,12.991 C2.143,12.991 4.951,12.991 6.334,12.991 C6.986,12.991 6.360,14.836 8.583,14.836 C10.899,14.836 10.256,12.991 11.002,12.991 C11.804,12.991 17.454,12.991 19.326,12.991 C20.112,12.991 19.546,14.818 21.702,14.818 C23.883,14.818 23.334,12.991 24.030,12.991 C25.277,12.991 27.857,12.991 27.857,12.991 C27.873,12.991 27.886,12.999 27.901,13.000 L28.500,13.000 C29.328,13.000 30.000,13.671 30.000,14.500 C30.000,15.328 29.328,16.000 28.500,16.000 ZM6.000,16.000 C4.895,16.000 4.000,16.895 4.000,18.000 C4.000,19.104 4.895,20.000 6.000,20.000 C7.104,20.000 8.000,19.104 8.000,18.000 C8.000,16.895 7.104,16.000 6.000,16.000 ZM7.000,23.000 C7.000,24.104 7.895,25.000 9.000,25.000 C10.104,25.000 11.000,24.104 11.000,23.000 C11.000,21.895 10.104,21.000 9.000,21.000 C7.895,21.000 7.000,21.895 7.000,23.000 ZM12.000,16.000 C10.895,16.000 10.000,16.895 10.000,18.000 C10.000,19.104 10.895,20.000 12.000,20.000 C13.104,20.000 14.000,19.104 14.000,18.000 C14.000,16.895 13.104,16.000 12.000,16.000 ZM13.000,23.000 C13.000,24.104 13.895,25.000 15.000,25.000 C16.104,25.000 17.000,24.104 17.000,23.000 C17.000,21.895 16.104,21.000 15.000,21.000 C13.895,21.000 13.000,21.895 13.000,23.000 ZM18.000,16.000 C16.895,16.000 16.000,16.895 16.000,18.000 C16.000,19.104 16.895,20.000 18.000,20.000 C19.104,20.000 20.000,19.104 20.000,18.000 C20.000,16.895 19.104,16.000 18.000,16.000 ZM21.000,21.000 C19.895,21.000 19.000,21.895 19.000,23.000 C19.000,24.104 19.895,25.000 21.000,25.000 C22.104,25.000 23.000,24.104 23.000,23.000 C23.000,21.895 22.104,21.000 21.000,21.000 ZM24.000,16.000 C22.895,16.000 22.000,16.895 22.000,18.000 C22.000,19.104 22.895,20.000 24.000,20.000 C25.104,20.000 26.000,19.104 26.000,18.000 C26.000,16.895 25.104,16.000 24.000,16.000 ZM21.857,13.574 C21.133,13.574 20.546,12.977 20.546,12.240 C20.546,12.037 20.599,11.849 20.679,11.676 L15.505,2.208 C15.505,2.208 15.325,0.427 15.713,0.259 C17.890,-0.683 17.709,1.105 17.707,1.151 C17.685,1.607 17.423,2.127 17.597,2.447 C18.726,4.512 21.161,8.968 22.267,10.991 C22.787,11.168 23.168,11.652 23.168,12.240 C23.168,12.977 22.581,13.574 21.857,13.574 ZM9.892,11.676 C9.972,11.849 10.025,12.037 10.025,12.240 C10.025,12.977 9.438,13.574 8.714,13.574 C7.990,13.574 7.403,12.977 7.403,12.240 C7.403,11.652 7.784,11.168 8.304,10.991 C9.410,8.968 11.845,4.512 12.974,2.447 C13.148,2.127 12.887,1.607 12.864,1.151 C12.862,1.105 12.681,-0.683 14.858,0.259 C15.246,0.427 15.066,2.208 15.066,2.208 L9.892,11.676 Z" class="cls-1"/>
</svg>
