<svg xmlns="http://www.w3.org/2000/svg" xmlns:xlink="http://www.w3.org/1999/xlink" preserveAspectRatio="xMidYMid" width="19" height="17.031" viewBox="0 0 19 17.031">
  <defs>
    <style>
      .cls-1 {
        fill: #000;
        fill-rule: evenodd;
      }
    </style>
  </defs>
  <path d="M18.050,9.957 L17.965,9.957 L15.863,16.310 C15.863,16.708 15.539,17.030 15.140,17.030 L3.981,17.030 C3.581,17.030 3.257,16.708 3.257,16.310 L1.054,9.957 L0.950,9.957 C0.425,9.957 -0.000,9.526 -0.000,8.993 C-0.000,8.460 0.425,8.028 0.950,8.028 L1.328,8.028 C1.338,8.028 1.347,8.023 1.357,8.023 C1.357,8.023 3.136,8.023 4.012,8.023 C4.424,8.023 4.028,9.209 5.436,9.209 C6.903,9.209 6.495,8.023 6.968,8.023 C7.476,8.023 11.054,8.023 12.240,8.023 C12.738,8.023 12.379,9.198 13.744,9.198 C15.126,9.198 14.778,8.023 15.219,8.023 C16.009,8.023 17.643,8.023 17.643,8.023 C17.653,8.023 17.661,8.028 17.671,8.028 L18.050,8.028 C18.575,8.028 19.000,8.460 19.000,8.993 C19.000,9.526 18.575,9.957 18.050,9.957 ZM3.800,10.105 C3.100,10.105 2.533,10.669 2.533,11.364 C2.533,12.060 3.100,12.623 3.800,12.623 C4.499,12.623 5.067,12.060 5.067,11.364 C5.067,10.669 4.499,10.105 3.800,10.105 ZM4.433,14.512 C4.433,15.208 5.000,15.771 5.700,15.771 C6.399,15.771 6.967,15.208 6.967,14.512 C6.967,13.817 6.399,13.253 5.700,13.253 C5.000,13.253 4.433,13.817 4.433,14.512 ZM7.600,10.105 C6.900,10.105 6.333,10.669 6.333,11.364 C6.333,12.060 6.900,12.623 7.600,12.623 C8.299,12.623 8.867,12.060 8.867,11.364 C8.867,10.669 8.299,10.105 7.600,10.105 ZM8.233,14.512 C8.233,15.208 8.800,15.771 9.500,15.771 C10.199,15.771 10.767,15.208 10.767,14.512 C10.767,13.817 10.199,13.253 9.500,13.253 C8.800,13.253 8.233,13.817 8.233,14.512 ZM11.400,10.105 C10.700,10.105 10.133,10.669 10.133,11.364 C10.133,12.060 10.700,12.623 11.400,12.623 C12.100,12.623 12.667,12.060 12.667,11.364 C12.667,10.669 12.100,10.105 11.400,10.105 ZM13.300,13.253 C12.600,13.253 12.033,13.817 12.033,14.512 C12.033,15.208 12.600,15.771 13.300,15.771 C13.999,15.771 14.567,15.208 14.567,14.512 C14.567,13.817 13.999,13.253 13.300,13.253 ZM15.200,10.105 C14.500,10.105 13.933,10.669 13.933,11.364 C13.933,12.060 14.500,12.623 15.200,12.623 C15.900,12.623 16.467,12.060 16.467,11.364 C16.467,10.669 15.900,10.105 15.200,10.105 ZM13.843,8.578 C13.384,8.578 13.013,8.202 13.013,7.738 C13.013,7.609 13.046,7.491 13.097,7.382 L9.820,1.421 C9.820,1.421 9.706,0.300 9.952,0.194 C11.330,-0.399 11.216,0.727 11.215,0.755 C11.200,1.043 11.034,1.370 11.145,1.571 C11.860,2.872 13.402,5.678 14.102,6.951 C14.432,7.062 14.673,7.367 14.673,7.738 C14.673,8.202 14.301,8.578 13.843,8.578 ZM6.265,7.382 C6.316,7.491 6.349,7.609 6.349,7.738 C6.349,8.202 5.977,8.578 5.519,8.578 C5.060,8.578 4.689,8.202 4.689,7.738 C4.689,7.367 4.930,7.062 5.259,6.951 C5.959,5.678 7.502,2.872 8.217,1.571 C8.327,1.370 8.161,1.043 8.147,0.755 C8.146,0.727 8.031,-0.399 9.410,0.194 C9.656,0.300 9.542,1.421 9.542,1.421 L6.265,7.382 Z" class="cls-1"/>
</svg>
