<svg xmlns="http://www.w3.org/2000/svg" xmlns:xlink="http://www.w3.org/1999/xlink" preserveAspectRatio="xMidYMid" width="45" height="45" viewBox="0 0 45 45">
  <defs>
    <style>
      .cls-1 {
        fill: #fff;
        fill-rule: evenodd;
      }
    </style>
  </defs>
  <path d="M22.500,-0.000 C10.094,-0.000 -0.000,10.094 -0.000,22.500 C-0.000,34.906 10.094,45.000 22.500,45.000 C34.906,45.000 45.000,34.906 45.000,22.500 C45.000,10.094 34.906,-0.000 22.500,-0.000 ZM27.068,23.999 L23.814,23.999 L23.814,35.500 L18.937,35.500 L18.937,23.999 L16.500,23.999 L16.500,20.036 L18.937,20.036 L18.937,17.656 C18.937,14.423 20.312,12.500 24.222,12.500 L27.477,12.500 L27.477,16.464 L25.443,16.464 C23.922,16.464 23.820,17.018 23.820,18.052 L23.814,20.036 L27.500,20.036 L27.068,23.999 Z" class="cls-1"/>
</svg>
