<svg xmlns="http://www.w3.org/2000/svg" xmlns:xlink="http://www.w3.org/1999/xlink" preserveAspectRatio="xMidYMid" width="45" height="45" viewBox="0 0 45 45">
  <defs>
    <style>
      .cls-1 {
        fill: #fff;
        fill-rule: evenodd;
      }
    </style>
  </defs>
  <path d="M22.500,45.000 C10.093,45.000 -0.000,34.906 -0.000,22.500 C-0.000,10.094 10.093,-0.000 22.500,-0.000 C34.906,-0.000 45.000,10.094 45.000,22.500 C45.000,34.906 34.906,45.000 22.500,45.000 ZM33.433,17.965 C33.381,16.794 33.193,15.994 32.922,15.295 C32.640,14.571 32.265,13.958 31.654,13.346 C31.041,12.734 30.427,12.358 29.705,12.078 C29.006,11.806 28.205,11.619 27.035,11.566 C25.861,11.513 25.486,11.500 22.500,11.500 C19.511,11.500 19.137,11.513 17.964,11.566 C16.793,11.619 15.994,11.806 15.294,12.078 C14.570,12.358 13.957,12.734 13.345,13.346 C12.734,13.958 12.357,14.571 12.077,15.295 C11.804,15.994 11.619,16.794 11.566,17.965 C11.511,19.138 11.500,19.512 11.500,22.500 C11.500,25.487 11.511,25.862 11.566,27.035 C11.619,28.206 11.804,29.006 12.077,29.705 C12.357,30.428 12.734,31.042 13.345,31.654 C13.957,32.266 14.570,32.641 15.294,32.922 C15.994,33.194 16.793,33.381 17.964,33.433 C19.137,33.487 19.511,33.500 22.500,33.500 C25.486,33.500 25.861,33.487 27.035,33.433 C28.205,33.381 29.006,33.194 29.705,32.922 C30.427,32.641 31.041,32.266 31.654,31.654 C32.265,31.042 32.640,30.428 32.922,29.705 C33.193,29.006 33.381,28.206 33.433,27.035 C33.486,25.862 33.500,25.487 33.500,22.500 C33.500,19.512 33.486,19.138 33.433,17.965 ZM31.074,28.987 C30.875,29.501 30.636,29.867 30.252,30.252 C29.867,30.637 29.500,30.875 28.986,31.075 C28.599,31.225 28.017,31.404 26.945,31.454 C25.785,31.507 25.437,31.517 22.500,31.517 C19.562,31.517 19.215,31.507 18.054,31.454 C16.982,31.404 16.399,31.225 16.011,31.075 C15.498,30.875 15.133,30.637 14.747,30.252 C14.362,29.867 14.124,29.501 13.924,28.987 C13.773,28.599 13.594,28.017 13.545,26.945 C13.492,25.785 13.481,25.437 13.481,22.500 C13.481,19.562 13.492,19.215 13.545,18.054 C13.594,16.982 13.773,16.400 13.924,16.012 C14.124,15.499 14.362,15.133 14.747,14.748 C15.133,14.363 15.498,14.125 16.011,13.925 C16.399,13.774 16.982,13.596 18.054,13.546 C19.215,13.493 19.562,13.482 22.500,13.482 C25.437,13.482 25.785,13.493 26.945,13.546 C28.017,13.596 28.599,13.774 28.986,13.925 C29.500,14.125 29.867,14.363 30.252,14.748 C30.636,15.133 30.875,15.499 31.074,16.012 C31.224,16.400 31.404,16.982 31.453,18.054 C31.506,19.215 31.517,19.562 31.517,22.500 C31.517,25.437 31.506,25.785 31.453,26.945 C31.404,28.017 31.224,28.599 31.074,28.987 ZM22.521,16.869 C19.399,16.869 16.869,19.400 16.869,22.521 C16.869,25.643 19.399,28.175 22.521,28.175 C25.642,28.175 28.174,25.643 28.174,22.521 C28.174,19.400 25.642,16.869 22.521,16.869 ZM28.349,15.298 C27.625,15.298 27.039,15.884 27.039,16.607 C27.039,17.330 27.625,17.916 28.349,17.916 C29.072,17.916 29.658,17.330 29.658,16.607 C29.658,15.884 29.072,15.298 28.349,15.298 ZM22.521,26.191 C20.494,26.191 18.851,24.549 18.851,22.521 C18.851,20.495 20.494,18.852 22.521,18.852 C24.549,18.852 26.191,20.495 26.191,22.521 C26.191,24.549 24.549,26.191 22.521,26.191 Z" class="cls-1"/>
</svg>
