<svg xmlns="http://www.w3.org/2000/svg" xmlns:xlink="http://www.w3.org/1999/xlink" preserveAspectRatio="xMidYMid" width="13" height="19" viewBox="0 0 13 19">
  <defs>
    <style>
      .cls-1 {
        fill: #869764;
        fill-rule: evenodd;
      }
    </style>
  </defs>
  <path d="M8.861,13.912 C7.200,16.669 6.500,19.000 6.500,19.000 C6.500,19.000 5.815,16.689 4.160,13.947 C2.566,11.305 -0.000,9.822 -0.000,6.500 C-0.000,2.910 2.910,-0.000 6.500,-0.000 C10.090,-0.000 13.000,2.910 13.000,6.500 C13.000,9.814 10.448,11.277 8.861,13.912 ZM6.500,2.145 C4.095,2.145 2.145,4.094 2.145,6.500 C2.145,8.905 4.095,10.855 6.500,10.855 C8.905,10.855 10.855,8.905 10.855,6.500 C10.855,4.094 8.905,2.145 6.500,2.145 Z" class="cls-1"/>
</svg>
