<svg xmlns="http://www.w3.org/2000/svg" xmlns:xlink="http://www.w3.org/1999/xlink" preserveAspectRatio="xMidYMid" width="48" height="32" viewBox="0 0 48 32">
  <defs>
    <style>
      .cls-1 {
        fill: #fff;
        fill-rule: evenodd;
      }
    </style>
  </defs>
  <path d="M44.000,32.000 L4.000,32.000 C1.800,32.000 -0.000,30.200 -0.000,28.000 L-0.000,4.000 C-0.000,1.800 1.800,-0.000 4.000,-0.000 L44.000,-0.000 C46.199,-0.000 48.000,1.800 48.000,4.000 L48.000,28.000 C48.000,30.200 46.199,32.000 44.000,32.000 ZM46.000,4.000 C46.000,2.900 45.099,2.000 44.000,2.000 L4.000,2.000 C2.899,2.000 2.000,2.900 2.000,4.000 L2.000,28.000 C2.000,29.100 2.899,30.000 4.000,30.000 L44.000,30.000 C45.099,30.000 46.000,29.100 46.000,28.000 L46.000,4.000 ZM24.699,20.800 C24.399,20.900 24.199,21.000 24.000,21.000 C23.800,21.000 23.599,20.900 23.500,20.800 L6.500,9.800 C6.000,9.500 5.899,8.900 6.199,8.400 C6.500,7.900 7.099,7.799 7.599,8.100 L24.099,18.700 L40.599,8.100 C41.099,7.799 41.699,7.900 42.000,8.400 C42.300,8.900 42.199,9.500 41.699,9.800 L24.699,20.800 ZM13.500,19.100 C14.000,18.800 14.599,19.000 14.899,19.500 C15.199,20.000 15.000,20.600 14.500,20.900 L7.500,24.900 C7.300,25.000 7.199,25.000 7.000,25.000 C6.699,25.000 6.300,24.800 6.099,24.500 C5.800,24.000 6.000,23.400 6.500,23.100 L13.500,19.100 ZM34.500,19.100 L41.500,23.100 C42.000,23.400 42.099,24.000 41.899,24.500 C41.699,24.800 41.300,25.000 41.000,25.000 C40.800,25.000 40.699,25.000 40.500,24.900 L33.500,20.900 C33.000,20.600 32.899,20.000 33.099,19.500 C33.399,19.000 34.000,18.900 34.500,19.100 Z" class="cls-1"/>
</svg>
