<svg xmlns="http://www.w3.org/2000/svg" xmlns:xlink="http://www.w3.org/1999/xlink" preserveAspectRatio="xMidYMid" width="12.094" height="13.938" viewBox="0 0 12.094 13.938">
  <defs>
    <style>
      .cls-1 {
        fill: #000;
        fill-rule: evenodd;
      }
    </style>
  </defs>
  <path d="M11.019,2.852 L9.717,4.518 L8.978,3.918 C8.541,3.563 7.913,3.609 7.542,4.023 C6.756,4.901 6.053,5.736 5.454,6.503 C4.832,7.299 4.189,8.181 3.546,9.124 C3.231,9.585 3.326,10.221 3.764,10.576 L4.510,11.182 L3.208,12.848 L1.056,11.104 C1.047,11.088 1.046,11.048 1.052,11.035 C1.077,11.003 1.101,10.969 1.122,10.934 C1.758,9.887 3.059,7.832 4.625,5.829 C6.028,4.032 7.724,2.241 8.662,1.282 C8.734,1.227 8.800,1.164 8.854,1.094 L11.019,2.852 M11.670,2.019 L9.505,0.261 C9.047,-0.111 8.384,-0.040 8.025,0.420 C8.016,0.431 8.002,0.429 7.992,0.436 C7.007,1.440 5.257,3.284 3.795,5.155 C2.224,7.166 0.926,9.204 0.223,10.361 C-0.137,10.821 -0.066,11.551 0.392,11.923 L2.557,13.681 C3.015,14.053 3.678,13.981 4.037,13.521 L5.339,11.855 C5.699,11.395 5.619,10.721 5.160,10.349 L4.415,9.743 C4.970,8.930 5.601,8.050 6.284,7.176 C6.940,6.336 7.652,5.505 8.327,4.751 L9.066,5.351 C9.524,5.723 10.187,5.652 10.547,5.191 L11.848,3.525 C12.208,3.065 12.128,2.391 11.670,2.019 L11.670,2.019 Z" class="cls-1"/>
</svg>
