<svg xmlns="http://www.w3.org/2000/svg" xmlns:xlink="http://www.w3.org/1999/xlink" preserveAspectRatio="xMidYMid" width="13" height="13" viewBox="0 0 13 13">
  <defs>
    <style>
      .cls-1 {
        fill: #fff;
        stroke: #4e610c;
        stroke-width: 1px;
        fill-rule: evenodd;
      }
    </style>
  </defs>
  <path d="M12.474,5.050 C12.427,4.896 12.293,4.790 12.139,4.787 L8.149,4.702 L6.840,0.756 C6.790,0.603 6.653,0.501 6.501,0.501 C6.348,0.501 6.212,0.603 6.161,0.756 L4.852,4.702 L0.862,4.787 C0.709,4.790 0.574,4.896 0.527,5.050 C0.480,5.205 0.531,5.374 0.654,5.472 L3.831,7.995 L2.676,11.990 C2.632,12.145 2.684,12.313 2.808,12.409 C2.931,12.504 3.098,12.507 3.224,12.415 L6.501,10.027 L9.778,12.415 C9.839,12.460 9.910,12.482 9.982,12.482 C10.056,12.482 10.131,12.458 10.194,12.409 C10.318,12.313 10.370,12.145 10.325,11.990 L9.170,7.995 L12.348,5.472 C12.470,5.374 12.521,5.205 12.474,5.050 Z" class="cls-1"/>
</svg>
