<svg xmlns="http://www.w3.org/2000/svg" xmlns:xlink="http://www.w3.org/1999/xlink" preserveAspectRatio="xMidYMid" width="12" height="12" viewBox="0 0 12 12">
  <defs>
    <style>
      .cls-1 {
        fill: #4e610c;
        fill-rule: evenodd;
      }
    </style>
  </defs>
  <path d="M11.990,4.550 C11.943,4.396 11.808,4.290 11.655,4.287 L7.655,4.202 L6.342,0.256 C6.292,0.103 6.155,0.001 6.002,0.001 C5.849,0.001 5.713,0.103 5.662,0.256 L4.349,4.202 L0.350,4.287 C0.196,4.290 0.061,4.396 0.014,4.550 C-0.033,4.705 0.017,4.874 0.141,4.972 L3.325,7.495 L2.168,11.490 C2.123,11.645 2.176,11.813 2.300,11.909 C2.424,12.004 2.591,12.007 2.717,11.915 L6.002,9.527 L9.287,11.915 C9.349,11.960 9.420,11.982 9.492,11.982 C9.566,11.982 9.641,11.958 9.705,11.909 C9.829,11.813 9.881,11.645 9.836,11.490 L8.679,7.495 L11.864,4.972 C11.987,4.874 12.038,4.705 11.990,4.550 Z" class="cls-1"/>
</svg>
