<svg xmlns="http://www.w3.org/2000/svg" xmlns:xlink="http://www.w3.org/1999/xlink" preserveAspectRatio="xMidYMid" width="53" height="34" viewBox="0 0 53 34">
  <defs>
    <style>
      .cls-1, .cls-2 {
        fill: #fff;
        stroke: #fff;
        stroke-linejoin: round;
        stroke-width: 2px;
        fill-opacity: 0;
      }

      .cls-1 {
        fill-rule: evenodd;
      }
    </style>
  </defs>
  <g>
    <path d="M50.140,20.446 L41.446,31.140 C39.765,32.821 37.838,33.327 36.000,32.714 L36.000,33.000 L7.000,33.000 C3.686,33.000 1.000,30.313 1.000,27.000 L1.000,7.000 C1.000,3.686 3.686,1.000 7.000,1.000 L36.000,1.000 L36.000,1.253 C37.838,0.640 39.765,1.146 41.446,2.827 L50.140,13.521 C52.604,15.985 52.604,17.981 50.140,20.446 Z" class="cls-1"/>
    <circle cx="39" cy="17" r="4" class="cls-2"/>
    <path d="M23.497,18.403 C21.814,14.588 17.031,15.478 16.999,19.905 C16.982,22.337 19.277,23.245 20.805,24.218 C22.287,25.160 23.342,26.450 23.507,26.999 C23.648,26.461 24.823,25.135 26.195,24.191 C27.694,23.159 30.018,22.310 30.001,19.879 C29.969,15.441 25.102,14.740 23.497,18.403 Z" class="cls-1"/>
  </g>
</svg>
