<svg xmlns="http://www.w3.org/2000/svg" xmlns:xlink="http://www.w3.org/1999/xlink" preserveAspectRatio="xMidYMid" width="43" height="42" viewBox="0 0 43 42">
  <defs>
    <style>
      .cls-1 {
        fill: #fff;
        fill-rule: evenodd;
      }
    </style>
  </defs>
  <path d="M0.006,41.842 C0.006,34.002 0.003,26.745 0.003,18.565 C3.161,18.929 3.826,19.466 5.673,19.777 C7.921,20.155 10.106,19.679 11.637,17.924 C14.592,14.533 16.393,10.586 16.971,6.141 C17.103,5.121 17.119,4.087 17.254,3.067 C17.468,1.435 18.157,0.188 20.063,0.023 C22.077,-0.151 23.642,0.347 24.182,2.490 C25.163,6.065 24.920,9.162 24.482,12.388 C24.250,13.391 24.093,14.401 23.790,15.839 C26.227,15.839 28.533,15.699 30.814,15.875 C33.624,16.093 36.492,16.290 39.193,17.009 C42.955,18.012 44.339,21.730 41.478,23.517 C40.607,24.061 41.690,25.754 41.478,26.793 C41.174,28.282 40.125,28.418 39.895,29.414 C39.647,30.489 40.200,31.617 39.895,32.868 C39.591,34.059 38.128,34.824 38.235,35.106 C39.275,37.869 36.486,41.028 32.544,41.371 C25.599,42.214 18.646,42.413 11.772,40.668 C10.444,40.331 9.083,40.028 7.722,39.947 C7.128,39.911 6.653,40.014 6.207,40.196 C5.807,40.359 6.375,41.565 5.985,41.613 C4.465,41.805 1.728,41.701 0.006,41.842 ZM21.135,17.975 C21.491,16.503 21.705,15.420 21.981,14.371 C22.911,10.830 23.337,7.614 22.661,4.477 C22.483,3.653 22.242,1.896 20.679,1.952 C19.502,1.955 19.176,3.571 19.145,4.405 C18.990,8.650 17.418,12.390 15.524,16.117 C12.743,21.593 6.402,23.144 1.935,20.855 C1.851,21.336 1.898,21.800 1.897,22.236 C1.881,27.471 1.868,32.707 1.911,37.941 C1.915,38.487 2.009,39.142 2.009,39.723 C2.603,39.723 3.899,39.881 3.904,39.650 C3.941,37.833 3.495,37.651 6.195,37.793 C8.291,37.904 10.377,38.317 12.409,38.818 C18.886,40.417 25.424,40.292 31.961,39.497 C35.678,39.045 37.566,36.888 35.225,34.561 C39.000,32.417 38.739,30.664 36.182,28.401 C39.707,28.045 40.516,25.410 37.046,22.491 C37.403,22.451 38.239,22.461 38.532,22.419 C39.442,22.288 40.443,22.266 40.735,21.082 C40.869,20.122 39.768,19.379 39.050,19.096 C37.574,18.514 35.946,18.076 34.365,18.024 C30.093,17.883 25.812,17.975 21.135,17.975 Z" class="cls-1"/>
</svg>
