<svg xmlns="http://www.w3.org/2000/svg" xmlns:xlink="http://www.w3.org/1999/xlink" preserveAspectRatio="xMidYMid" width="45" height="45" viewBox="0 0 45 45">
  <defs>
    <style>
      .cls-1 {
        fill: #fff;
        fill-rule: evenodd;
      }
    </style>
  </defs>
  <path d="M22.500,45.000 C10.093,45.000 -0.000,34.906 -0.000,22.500 C-0.000,10.094 10.093,-0.000 22.500,-0.000 C34.906,-0.000 45.000,10.094 45.000,22.500 C45.000,34.906 34.906,45.000 22.500,45.000 ZM20.489,10.501 C19.877,10.498 19.691,10.501 19.674,10.517 C19.666,10.524 19.455,11.328 19.079,12.786 C18.900,13.480 18.748,14.036 18.744,14.019 C18.738,14.002 18.523,13.209 18.265,12.257 C18.009,11.303 17.793,10.518 17.787,10.513 C17.777,10.503 16.959,10.499 16.295,10.505 C16.199,10.505 16.145,10.317 17.152,13.531 C17.292,13.975 17.501,14.606 17.616,14.930 C17.972,15.932 18.056,16.325 18.019,16.823 C17.990,17.211 17.986,19.954 18.013,20.001 C18.035,20.036 19.317,20.052 19.439,20.018 C19.493,20.004 19.497,19.883 19.497,18.071 L19.497,16.141 L19.593,15.831 C19.648,15.661 19.783,15.216 19.894,14.840 C20.006,14.464 20.140,14.012 20.193,13.839 C20.677,12.258 21.138,10.702 21.150,10.614 L21.166,10.505 L20.489,10.501 ZM24.900,14.323 C24.773,13.772 24.533,13.403 24.140,13.147 C23.521,12.746 22.815,12.704 22.160,13.028 C21.683,13.266 21.375,13.658 21.217,14.233 C21.150,14.475 21.144,14.581 21.133,16.268 C21.117,18.447 21.142,18.706 21.413,19.200 C21.679,19.686 22.234,20.042 22.836,20.115 C23.017,20.138 23.385,20.102 23.597,20.044 C24.078,19.910 24.537,19.529 24.740,19.097 C24.953,18.647 24.963,18.528 24.963,16.456 C24.963,14.753 24.957,14.565 24.900,14.323 ZM29.664,16.453 L29.664,12.905 L28.992,12.913 L28.318,12.923 L28.310,15.631 L28.301,18.340 L28.076,18.570 C27.842,18.809 27.654,18.901 27.484,18.859 C27.299,18.812 27.303,18.885 27.287,15.780 L27.273,12.923 L26.599,12.923 L25.926,12.923 L25.926,16.022 C25.926,19.345 25.926,19.344 26.093,19.677 C26.228,19.942 26.424,20.072 26.758,20.116 C27.195,20.174 27.670,19.975 28.111,19.546 L28.302,19.358 L28.302,19.680 C28.302,19.959 28.310,20.005 28.359,20.018 C28.441,20.042 29.463,20.044 29.572,20.020 L29.664,20.001 L29.664,16.453 ZM33.384,25.217 C33.256,23.656 33.152,23.149 32.832,22.499 C32.406,21.637 31.793,21.184 30.918,21.084 C30.242,21.007 27.701,20.897 25.345,20.844 C21.271,20.754 14.574,20.929 13.717,21.149 C13.322,21.251 13.026,21.423 12.717,21.731 C12.177,22.270 11.855,23.045 11.725,24.117 C11.429,26.562 11.424,29.517 11.708,32.051 C11.830,33.141 12.084,33.849 12.556,34.433 C12.853,34.798 13.362,35.107 13.818,35.199 C14.137,35.265 15.738,35.353 18.070,35.438 C18.417,35.451 19.336,35.472 20.113,35.486 C21.732,35.515 24.709,35.498 26.410,35.450 C27.554,35.418 29.642,35.334 30.031,35.303 C30.140,35.295 30.394,35.279 30.595,35.266 C31.271,35.228 31.701,35.087 32.105,34.768 C32.627,34.356 33.031,33.596 33.201,32.703 C33.363,31.859 33.472,30.355 33.494,28.648 C33.513,27.222 33.488,26.452 33.384,25.217 ZM30.095,31.447 C30.271,31.293 30.322,31.127 30.340,30.642 L30.355,30.217 L30.970,30.217 L31.586,30.217 L31.568,30.692 C31.556,30.953 31.523,31.254 31.496,31.360 C31.330,31.978 30.886,32.417 30.248,32.597 C29.385,32.838 28.437,32.441 28.058,31.681 C27.845,31.254 27.838,31.170 27.838,29.084 C27.838,27.383 27.845,27.176 27.898,26.943 C28.051,26.286 28.431,25.861 29.076,25.626 C29.929,25.314 30.957,25.709 31.328,26.490 C31.523,26.903 31.547,27.080 31.568,28.242 L31.584,29.283 L30.308,29.293 L29.035,29.300 L29.025,30.001 C29.011,30.988 29.078,31.293 29.343,31.472 C29.566,31.623 29.910,31.611 30.095,31.447 ZM29.029,28.232 C29.047,28.276 29.138,28.283 29.701,28.283 L30.353,28.283 L30.342,27.692 C30.330,27.149 30.324,27.086 30.252,26.939 C30.138,26.708 29.969,26.604 29.701,26.604 C29.381,26.604 29.177,26.760 29.082,27.080 C29.041,27.215 28.998,28.151 29.029,28.232 ZM25.972,32.609 C25.471,32.758 25.068,32.638 24.603,32.199 C24.457,32.062 24.324,31.951 24.304,31.951 C24.279,31.951 24.265,32.058 24.265,32.268 L24.265,32.585 L23.668,32.585 L23.070,32.585 L23.070,27.884 L23.070,23.183 L23.668,23.183 L24.265,23.183 L24.265,24.717 C24.265,25.560 24.279,26.250 24.291,26.250 C24.304,26.250 24.431,26.139 24.572,26.003 C24.896,25.689 25.166,25.552 25.508,25.525 C26.121,25.479 26.484,25.795 26.650,26.516 C26.703,26.742 26.709,26.999 26.709,29.084 C26.709,31.623 26.709,31.635 26.506,32.086 C26.400,32.322 26.166,32.553 25.972,32.609 ZM25.420,29.034 C25.412,27.170 25.408,27.060 25.349,26.937 C25.195,26.626 24.806,26.595 24.449,26.869 L24.332,26.958 L24.332,29.084 L24.332,31.210 L24.449,31.299 C24.713,31.500 25.002,31.543 25.201,31.409 C25.279,31.355 25.330,31.282 25.371,31.167 C25.422,31.015 25.427,30.822 25.420,29.034 ZM20.644,32.585 L20.644,32.219 C20.644,31.941 20.634,31.851 20.602,31.851 C20.578,31.851 20.470,31.941 20.361,32.052 C20.125,32.295 19.844,32.490 19.605,32.578 C19.110,32.765 18.640,32.656 18.439,32.310 C18.256,31.994 18.252,31.922 18.252,28.635 L18.252,25.617 L18.849,25.617 L19.447,25.617 L19.456,28.459 C19.465,31.252 19.467,31.304 19.533,31.416 C19.621,31.568 19.758,31.609 19.970,31.550 C20.097,31.515 20.183,31.453 20.387,31.249 L20.644,30.992 L20.644,28.305 L20.644,25.617 L21.243,25.617 L21.842,25.617 L21.842,29.100 L21.842,32.585 L21.243,32.585 L20.644,32.585 ZM16.441,24.466 L16.425,28.517 L16.408,32.568 L15.751,32.577 C15.244,32.584 15.090,32.576 15.078,32.544 C15.070,32.521 15.058,30.693 15.054,28.484 L15.046,24.466 L14.306,24.458 L13.568,24.448 L13.568,23.816 L13.568,23.182 L15.752,23.191 L17.937,23.199 L17.946,23.824 L17.955,24.448 L17.199,24.458 L16.441,24.466 ZM23.365,18.762 C23.252,18.849 23.054,18.886 22.893,18.852 C22.769,18.825 22.603,18.630 22.551,18.452 C22.482,18.216 22.481,14.699 22.549,14.463 C22.639,14.155 22.896,13.995 23.176,14.069 C23.392,14.130 23.504,14.264 23.566,14.550 C23.613,14.761 23.619,15.024 23.609,16.575 C23.597,18.570 23.595,18.585 23.365,18.762 Z" class="cls-1"/>
</svg>
